<svg width="295" height="60" viewBox="0 0 295 60" fill="none" xmlns="http://www.w3.org/2000/svg">
<path d="M80.1572 39.0001V19.3638H92.4683V21.9142H83.1199V27.8972H91.8259V30.438H83.1199V36.4497H92.5834V39.0001H80.1572Z" fill="white"/>
<path d="M99.0625 19.3638V39.0001H96.1957V19.3638H99.0625Z" fill="white"/>
<path d="M102.919 39.0001V24.2729H105.69V26.6123H105.844C106.112 25.8197 106.585 25.1965 107.263 24.7427C107.947 24.2824 108.72 24.0523 109.583 24.0523C109.762 24.0523 109.973 24.0587 110.216 24.0715C110.465 24.0843 110.66 24.1003 110.801 24.1195V26.8616C110.686 26.8297 110.481 26.7945 110.187 26.7562C109.893 26.7114 109.599 26.6891 109.305 26.6891C108.627 26.6891 108.023 26.8329 107.493 27.1205C106.969 27.4018 106.553 27.7949 106.246 28.2998C105.94 28.7984 105.786 29.3673 105.786 30.0065V39.0001H102.919Z" fill="white"/>
<path d="M118.958 39.2974C117.577 39.2974 116.372 38.981 115.343 38.3481C114.314 37.7153 113.515 36.83 112.946 35.6923C112.377 34.5545 112.093 33.2249 112.093 31.7036C112.093 30.1759 112.377 28.84 112.946 27.6958C113.515 26.5516 114.314 25.6631 115.343 25.0303C116.372 24.3975 117.577 24.0811 118.958 24.0811C120.338 24.0811 121.543 24.3975 122.572 25.0303C123.602 25.6631 124.401 26.5516 124.969 27.6958C125.538 28.84 125.823 30.1759 125.823 31.7036C125.823 33.2249 125.538 34.5545 124.969 35.6923C124.401 36.83 123.602 37.7153 122.572 38.3481C121.543 38.981 120.338 39.2974 118.958 39.2974ZM118.967 36.8908C119.862 36.8908 120.604 36.6543 121.192 36.1812C121.78 35.7082 122.214 35.0786 122.496 34.2924C122.783 33.5062 122.927 32.64 122.927 31.694C122.927 30.7544 122.783 29.8915 122.496 29.1052C122.214 28.3126 121.78 27.6766 121.192 27.1972C120.604 26.7178 119.862 26.4781 118.967 26.4781C118.066 26.4781 117.318 26.7178 116.724 27.1972C116.136 27.6766 115.698 28.3126 115.41 29.1052C115.129 29.8915 114.988 30.7544 114.988 31.694C114.988 32.64 115.129 33.5062 115.41 34.2924C115.698 35.0786 116.136 35.7082 116.724 36.1812C117.318 36.6543 118.066 36.8908 118.967 36.8908Z" fill="white"/>
<path d="M131.89 30.2558V39.0001H129.023V24.2729H131.775V26.6699H131.957C132.296 25.89 132.826 25.2636 133.548 24.7906C134.277 24.3176 135.194 24.0811 136.3 24.0811C137.304 24.0811 138.183 24.292 138.937 24.7139C139.691 25.1294 140.276 25.7494 140.691 26.574C141.107 27.3986 141.315 28.4181 141.315 29.6326V39.0001H138.448V29.9778C138.448 28.9103 138.17 28.0761 137.614 27.4753C137.058 26.868 136.294 26.5644 135.322 26.5644C134.657 26.5644 134.066 26.7082 133.548 26.9959C133.037 27.2835 132.631 27.7054 132.331 28.2615C132.037 28.8112 131.89 29.476 131.89 30.2558Z" fill="white"/>
<path d="M150.673 39.2878C149.484 39.2878 148.423 38.9842 147.489 38.3769C146.563 37.7633 145.834 36.8908 145.303 35.7594C144.779 34.6216 144.517 33.2569 144.517 31.6653C144.517 30.0736 144.782 28.7121 145.313 27.5807C145.85 26.4494 146.585 25.5832 147.518 24.9824C148.451 24.3815 149.509 24.0811 150.692 24.0811C151.606 24.0811 152.341 24.2345 152.897 24.5413C153.46 24.8418 153.894 25.1933 154.201 25.596C154.514 25.9987 154.757 26.3535 154.93 26.6603H155.102V19.3638H157.969V39.0001H155.169V36.7086H154.93C154.757 37.0218 154.508 37.3797 154.182 37.7824C153.862 38.1851 153.421 38.5367 152.859 38.8371C152.296 39.1376 151.568 39.2878 150.673 39.2878ZM151.305 36.8428C152.13 36.8428 152.827 36.6255 153.396 36.1908C153.971 35.7498 154.406 35.1393 154.7 34.3595C155 33.5797 155.15 32.672 155.15 31.6365C155.15 30.6138 155.003 29.7189 154.709 28.9518C154.415 28.1848 153.984 27.5871 153.415 27.1589C152.846 26.7306 152.143 26.5165 151.305 26.5165C150.443 26.5165 149.723 26.7402 149.148 27.1876C148.573 27.6351 148.138 28.2455 147.844 29.019C147.557 29.7924 147.413 30.6649 147.413 31.6365C147.413 32.6209 147.56 33.5062 147.854 34.2924C148.148 35.0786 148.582 35.7018 149.158 36.1621C149.739 36.6159 150.455 36.8428 151.305 36.8428Z" fill="white"/>
<path d="M164.525 19.3638V21.2047C164.525 21.748 164.423 22.3201 164.218 22.9209C164.02 23.5154 163.739 24.0875 163.374 24.6372C163.01 25.1869 162.582 25.6599 162.09 26.0562L160.671 25.0399C161.048 24.4902 161.374 23.9053 161.649 23.2853C161.93 22.6653 162.071 21.9813 162.071 21.2334V19.3638H164.525Z" fill="white"/>
<path d="M176.472 27.8684L173.873 28.3286C173.765 27.9962 173.592 27.6798 173.356 27.3794C173.126 27.079 172.812 26.8329 172.416 26.6411C172.02 26.4494 171.524 26.3535 170.93 26.3535C170.118 26.3535 169.441 26.5356 168.897 26.9C168.354 27.2579 168.082 27.7214 168.082 28.2903C168.082 28.7824 168.264 29.1788 168.629 29.4792C168.993 29.7796 169.581 30.0257 170.393 30.2175L172.732 30.7544C174.088 31.0676 175.097 31.5502 175.762 32.2022C176.427 32.8542 176.759 33.7011 176.759 34.743C176.759 35.6251 176.504 36.4114 175.992 37.1017C175.487 37.7856 174.781 38.3226 173.873 38.7125C172.972 39.1024 171.927 39.2974 170.738 39.2974C169.089 39.2974 167.743 38.9458 166.702 38.2427C165.66 37.5332 165.02 36.5264 164.784 35.2224L167.555 34.8006C167.727 35.5229 168.082 36.0694 168.619 36.4401C169.156 36.8045 169.856 36.9866 170.719 36.9866C171.659 36.9866 172.41 36.7917 172.972 36.4018C173.535 36.0055 173.816 35.5229 173.816 34.954C173.816 34.4937 173.643 34.107 173.298 33.7938C172.959 33.4806 172.438 33.2441 171.735 33.0843L169.242 32.5378C167.868 32.2246 166.852 31.726 166.193 31.042C165.541 30.3581 165.215 29.492 165.215 28.4437C165.215 27.5744 165.458 26.8137 165.944 26.1617C166.43 25.5097 167.101 25.0016 167.958 24.6372C168.814 24.2665 169.795 24.0811 170.901 24.0811C172.493 24.0811 173.746 24.4263 174.66 25.1166C175.574 25.8006 176.178 26.7178 176.472 27.8684Z" fill="white"/>
<path d="M193.644 39.0001H187.287V19.3638H193.845C195.769 19.3638 197.422 19.7569 198.802 20.5431C200.183 21.3229 201.241 22.4447 201.976 23.9085C202.718 25.3659 203.088 27.1141 203.088 29.1532C203.088 31.1986 202.714 32.9565 201.966 34.4266C201.225 35.8968 200.151 37.0282 198.745 37.8208C197.339 38.607 195.638 39.0001 193.644 39.0001ZM190.25 36.4114H193.481C194.977 36.4114 196.22 36.1301 197.211 35.5676C198.202 34.9987 198.943 34.1773 199.435 33.1035C199.927 32.0232 200.173 30.7065 200.173 29.1532C200.173 27.6127 199.927 26.3055 199.435 25.2317C198.949 24.1578 198.224 23.3428 197.259 22.7867C196.294 22.2306 195.095 21.9525 193.663 21.9525H190.25V36.4114Z" fill="white"/>
<path d="M212.89 39.2974C211.439 39.2974 210.189 38.9874 209.141 38.3673C208.099 37.7409 207.293 36.862 206.725 35.7306C206.162 34.5928 205.881 33.2601 205.881 31.7324C205.881 30.2239 206.162 28.8943 206.725 27.7437C207.293 26.5932 208.086 25.6951 209.102 25.0495C210.125 24.4039 211.32 24.0811 212.688 24.0811C213.519 24.0811 214.325 24.2185 215.105 24.4934C215.884 24.7682 216.584 25.1997 217.204 25.7878C217.824 26.3758 218.313 27.1397 218.671 28.0793C219.029 29.0126 219.208 30.1472 219.208 31.4831V32.4994H207.501V30.3517H216.399C216.399 29.5974 216.245 28.9295 215.939 28.3478C215.632 27.7597 215.2 27.2963 214.644 26.9575C214.095 26.6187 213.449 26.4494 212.707 26.4494C211.902 26.4494 211.199 26.6475 210.598 27.0438C210.004 27.4337 209.543 27.9451 209.217 28.5779C208.898 29.2043 208.738 29.8851 208.738 30.6202V32.2981C208.738 33.2824 208.911 34.1198 209.256 34.8101C209.607 35.5005 210.096 36.0278 210.723 36.3922C211.349 36.7501 212.081 36.9291 212.918 36.9291C213.462 36.9291 213.957 36.8524 214.405 36.699C214.852 36.5392 215.239 36.3027 215.565 35.9895C215.891 35.6763 216.14 35.2896 216.313 34.8293L219.026 35.3183C218.809 36.1173 218.419 36.8173 217.856 37.4181C217.3 38.0126 216.6 38.476 215.757 38.8084C214.919 39.1344 213.964 39.2974 212.89 39.2974Z" fill="white"/>
<path d="M234.566 24.2729L229.225 39.0001H226.157L220.807 24.2729H223.885L227.615 35.606H227.768L231.488 24.2729H234.566Z" fill="white"/>
<path d="M244.636 39.0001V19.3638H247.598V27.8972H257.388V19.3638H260.36V39.0001H257.388V30.438H247.598V39.0001H244.636Z" fill="white"/>
<path d="M273.774 32.8925V24.2729H276.65V39.0001H273.831V36.4497H273.678C273.339 37.2359 272.796 37.8911 272.048 38.4153C271.307 38.933 270.383 39.1919 269.277 39.1919C268.331 39.1919 267.494 38.9842 266.765 38.5687C266.043 38.1468 265.474 37.5236 265.058 36.699C264.649 35.8744 264.445 34.8549 264.445 33.6404V24.2729H267.312V33.2952C267.312 34.2988 267.59 35.0978 268.146 35.6923C268.702 36.2867 269.424 36.5839 270.313 36.5839C270.85 36.5839 271.383 36.4497 271.914 36.1812C272.451 35.9128 272.895 35.5069 273.247 34.9636C273.604 34.4202 273.78 33.7299 273.774 32.8925Z" fill="white"/>
<path d="M280.732 39.0001V19.3638H283.599V26.6603H283.772C283.938 26.3535 284.178 25.9987 284.491 25.596C284.804 25.1933 285.239 24.8418 285.795 24.5413C286.351 24.2345 287.086 24.0811 288 24.0811C289.189 24.0811 290.25 24.3815 291.183 24.9824C292.117 25.5832 292.849 26.4494 293.379 27.5807C293.916 28.7121 294.184 30.0736 294.184 31.6653C294.184 33.2569 293.919 34.6216 293.389 35.7594C292.858 36.8908 292.129 37.7633 291.203 38.3769C290.276 38.9842 289.218 39.2878 288.029 39.2878C287.134 39.2878 286.402 39.1376 285.833 38.8371C285.271 38.5367 284.83 38.1851 284.51 37.7824C284.191 37.3797 283.944 37.0218 283.772 36.7086H283.532V39.0001H280.732ZM283.542 31.6365C283.542 32.672 283.692 33.5797 283.992 34.3595C284.293 35.1393 284.727 35.7498 285.296 36.1908C285.865 36.6255 286.562 36.8428 287.387 36.8428C288.243 36.8428 288.959 36.6159 289.534 36.1621C290.11 35.7018 290.544 35.0786 290.838 34.2924C291.139 33.5062 291.289 32.6209 291.289 31.6365C291.289 30.6649 291.142 29.7924 290.848 29.019C290.56 28.2455 290.126 27.6351 289.544 27.1876C288.969 26.7402 288.249 26.5165 287.387 26.5165C286.556 26.5165 285.852 26.7306 285.277 27.1589C284.708 27.5871 284.277 28.1848 283.983 28.9518C283.689 29.7189 283.542 30.6138 283.542 31.6365Z" fill="white"/>
<g clip-path="url(#clip0_690_312)">
<path d="M26.3403 26.34C24.3195 28.3607 24.3195 31.6391 26.3403 33.6598C27.3435 34.6631 28.6719 35.1718 30.0002 35.1718C31.3285 35.1718 32.6568 34.6631 33.6601 33.6598C35.6808 31.6391 35.6808 28.3607 33.6601 26.34C31.6394 24.3193 28.3468 24.3193 26.3261 26.34H26.3403Z" fill="#D3D6FF"/>
<path d="M46.4486 46.4484C44.4279 48.4692 44.4279 51.7617 46.4486 53.7824C47.4237 54.7574 48.7237 55.2944 50.1086 55.2944C51.4934 55.2944 52.7934 54.7574 53.7685 53.7824C55.7892 51.7617 55.7892 48.4833 53.7685 46.4626C51.7478 44.4418 48.4694 44.4418 46.4486 46.4626V46.4484Z" fill="#D3D6FF"/>
<path d="M9.89177 15.0637C11.2201 15.0637 12.5484 14.555 13.5517 13.5517C15.5724 11.5309 15.5724 8.23842 13.5517 6.21769C11.531 4.19697 8.25258 4.19697 6.23185 6.21769C4.21113 8.23842 4.21113 11.5309 6.23185 13.5517C7.23515 14.555 8.56346 15.0637 9.89177 15.0637Z" fill="#D3D6FF"/>
<path d="M50.1086 15.0777C51.4934 15.0777 52.7934 14.5408 53.7685 13.5657C55.7892 11.545 55.7892 8.26662 53.7685 6.2459C52.7934 5.27086 51.4934 4.73389 50.1086 4.73389C48.7237 4.73389 47.4237 5.27086 46.4486 6.2459C44.4279 8.26662 44.4279 11.5591 46.4486 13.5799C47.4237 14.5549 48.7237 15.0919 50.1086 15.0919V15.0777Z" fill="#D3D6FF"/>
<path d="M6.23185 46.4484C4.21113 48.4691 4.21113 51.7616 6.23185 53.7824C7.23515 54.7857 8.56346 55.2944 9.89177 55.2944C11.2201 55.2944 12.5484 54.7857 13.5517 53.7824C15.5724 51.7616 15.5724 48.4691 13.5517 46.4484C11.531 44.4277 8.25258 44.4277 6.23185 46.4484Z" fill="#D3D6FF"/>
<path d="M35.0587 35.0589C34.3945 35.7231 34.3945 36.797 35.0587 37.4612C35.3978 37.7862 35.8217 37.9558 36.2598 37.9558C36.6979 37.9558 37.1359 37.7862 37.4609 37.4612C38.1251 36.797 38.1251 35.7231 37.4609 35.0589C36.7968 34.3948 35.7228 34.3948 35.0587 35.0589Z" fill="#D3D6FF"/>
<path d="M38.8458 41.2482C39.1708 41.5732 39.5947 41.7427 40.0469 41.7427C40.4991 41.7427 40.923 41.5732 41.248 41.2482C41.9122 40.584 41.9122 39.5101 41.248 38.8459C40.923 38.5209 40.4991 38.3513 40.0469 38.3513C39.5947 38.3513 39.1708 38.5209 38.8458 38.8459C38.1816 39.5101 38.1816 40.584 38.8458 41.2482Z" fill="#D3D6FF"/>
<path d="M45.5443 43.8483C45.5443 43.3961 45.3747 42.9722 45.0497 42.6472C44.7247 42.3222 44.3007 42.1526 43.8485 42.1526C43.3964 42.1526 42.9724 42.3222 42.6474 42.6472C42.3224 42.9722 42.1528 43.3961 42.1528 43.8483C42.1528 44.3005 42.3224 44.7244 42.6474 45.0494C42.9724 45.3744 43.3964 45.544 43.8485 45.544C44.3007 45.544 44.7247 45.3744 45.0497 45.0494C45.3747 44.7244 45.5443 44.3005 45.5443 43.8483Z" fill="#D3D6FF"/>
<path d="M14.9506 14.9505C14.6256 15.2755 14.4561 15.6994 14.4561 16.1516C14.4561 16.6038 14.6256 17.0278 14.9506 17.3528C15.2757 17.6778 15.7137 17.8474 16.1518 17.8474C16.5898 17.8474 17.0279 17.6778 17.3529 17.3528C17.6779 17.0278 17.8475 16.6038 17.8475 16.1516C17.8475 15.6994 17.6779 15.2755 17.3529 14.9505C16.6887 14.2864 15.6148 14.2864 14.9506 14.9505Z" fill="#D3D6FF"/>
<path d="M19.939 21.6485C20.3912 21.6485 20.8151 21.4789 21.1401 21.1539C21.8043 20.4898 21.8043 19.4158 21.1401 18.7517C20.8151 18.4267 20.3912 18.2571 19.939 18.2571C19.4868 18.2571 19.0629 18.4267 18.7379 18.7517C18.0737 19.4158 18.0737 20.4898 18.7379 21.1539C19.0629 21.4789 19.4868 21.6485 19.939 21.6485Z" fill="#D3D6FF"/>
<path d="M22.5386 22.5389C21.8745 23.203 21.8745 24.277 22.5386 24.9411C22.8778 25.2662 23.3017 25.4357 23.7398 25.4357C24.1778 25.4357 24.6159 25.2662 24.9409 24.9411C25.6051 24.277 25.6051 23.203 24.9409 22.5389C24.2767 21.8747 23.2028 21.8747 22.5386 22.5389Z" fill="#D3D6FF"/>
<path d="M22.5386 37.4612C22.8778 37.8003 23.3017 37.9558 23.7398 37.9558C24.1778 37.9558 24.6159 37.7862 24.9409 37.4612C25.6051 36.797 25.6051 35.7231 24.9409 35.0589C24.2767 34.3948 23.2028 34.3948 22.5386 35.0589C21.8745 35.7231 21.8745 36.797 22.5386 37.4612Z" fill="#D3D6FF"/>
<path d="M18.7379 41.2482C19.0629 41.5732 19.4868 41.7427 19.939 41.7427C20.3912 41.7427 20.8151 41.5732 21.1401 41.2482C21.8043 40.584 21.8043 39.5101 21.1401 38.8459C20.8151 38.5209 20.3912 38.3513 19.939 38.3513C19.4868 38.3513 19.0629 38.5209 18.7379 38.8459C18.0737 39.5101 18.0737 40.584 18.7379 41.2482Z" fill="#D3D6FF"/>
<path d="M14.9506 42.6473C14.6256 42.9723 14.4561 43.3962 14.4561 43.8484C14.4561 44.3006 14.6256 44.7245 14.9506 45.0495C15.2757 45.3746 15.7137 45.5441 16.1518 45.5441C16.5898 45.5441 17.0279 45.3746 17.3529 45.0495C17.6779 44.7245 17.8475 44.3006 17.8475 43.8484C17.8475 43.3962 17.6779 42.9723 17.3529 42.6473C16.6887 41.9831 15.6148 41.9831 14.9506 42.6473Z" fill="#D3D6FF"/>
<path d="M43.8485 17.8475C44.3007 17.8475 44.7247 17.6779 45.0497 17.3529C45.3747 17.0279 45.5443 16.604 45.5443 16.1518C45.5443 15.6996 45.3747 15.2757 45.0497 14.9506C44.7247 14.6256 44.3007 14.4561 43.8485 14.4561C43.3964 14.4561 42.9724 14.6256 42.6474 14.9506C42.3224 15.2757 42.1528 15.6996 42.1528 16.1518C42.1528 16.604 42.3224 17.0279 42.6474 17.3529C42.9724 17.6779 43.3964 17.8475 43.8485 17.8475Z" fill="#D3D6FF"/>
<path d="M40.0469 21.6485C40.4991 21.6485 40.923 21.4789 41.248 21.1539C41.9122 20.4898 41.9122 19.4158 41.248 18.7517C40.923 18.4267 40.4991 18.2571 40.0469 18.2571C39.5947 18.2571 39.1708 18.4267 38.8458 18.7517C38.1816 19.4158 38.1816 20.4898 38.8458 21.1539C39.1708 21.4789 39.5947 21.6485 40.0469 21.6485Z" fill="#D3D6FF"/>
<path d="M37.4609 22.5389C36.7968 21.8747 35.7228 21.8747 35.0587 22.5389C34.3945 23.203 34.3945 24.277 35.0587 24.9411C35.3978 25.2803 35.8217 25.4357 36.2598 25.4357C36.6979 25.4357 37.1359 25.2662 37.4609 24.9411C38.1251 24.277 38.1251 23.203 37.4609 22.5389Z" fill="#D3D6FF"/>
<path d="M48.3419 18.3421L48.2148 18.229L46.0527 20.391L55.6618 30.0001L46.1799 39.4819L46.0527 39.6091L48.2148 41.7712L59.8728 30.1273L60 30.0001L48.3419 18.3421Z" fill="#4952FC"/>
<path d="M11.7711 41.7712L13.9472 39.6091L4.3382 30.0001L13.8201 20.5182L13.9472 20.391L11.7711 18.229L0.127179 29.8729L0 30.0001L11.6439 41.644L11.7711 41.7712Z" fill="#D3D6FF"/>
<path d="M30.0001 55.6618L20.5182 46.1799L20.391 46.0527L18.229 48.2148L29.8729 59.8728L30.0001 60L41.644 48.3419L41.7712 48.2148L39.6091 46.0527L30.0001 55.6618Z" fill="#D3D6FF"/>
<path d="M30.0001 0L18.3421 11.658L18.229 11.7711L20.391 13.9472L30.0001 4.3382L39.4819 13.8201L39.6091 13.9472L41.7712 11.7711L30.1273 0.127179L30.0001 0Z" fill="#D3D6FF"/>
</g>
<defs>
<clipPath id="clip0_690_312">
<rect width="60" height="60" fill="white"/>
</clipPath>
</defs>
</svg>
