<svg width="862" height="214" viewBox="0 0 862 214" fill="none" xmlns="http://www.w3.org/2000/svg">
<path d="M219.54 38.18H166.575V173H219.54C256.712 173 284.061 143.147 284.061 105.59C284.061 67.8404 256.712 38.18 219.54 38.18ZM219.54 151.814H188.724V59.366H219.54C245.156 59.366 262.682 78.8186 262.682 105.59C262.682 132.169 245.156 151.814 219.54 151.814ZM319.276 133.71H395.931C396.316 131.013 396.702 127.932 396.702 125.043C396.702 97.3082 377.056 74.1962 348.359 74.1962C318.121 74.1962 297.513 96.3452 297.513 124.85C297.513 153.74 318.121 175.504 349.9 175.504C368.775 175.504 383.22 167.607 392.079 154.51L374.938 144.495C370.315 151.236 361.648 156.436 350.092 156.436C334.684 156.436 322.551 148.732 319.276 133.71ZM319.084 116.761C321.973 102.316 332.566 93.071 348.166 93.071C360.685 93.071 372.819 100.197 375.708 116.761H319.084ZM476.534 76.7L449.763 149.888L422.799 76.7H400.072L437.629 173H461.704L499.261 76.7H476.534ZM593.71 38.18V93.4562H535.93V38.18H513.781V173H535.93V114.642H593.71V173H615.859V38.18H593.71ZM706.366 76.7V128.317C706.366 147.962 695.581 156.051 681.906 156.051C668.809 156.051 660.335 148.347 660.335 133.71V76.7H639.534V135.828C639.534 160.866 654.942 175.504 676.513 175.504C689.61 175.504 700.011 170.689 706.366 160.674V173H727.167V76.7H706.366ZM805.996 74.1962C790.973 74.1962 779.61 80.3594 772.291 90.3746V38.18H751.49V173H772.291V159.133C779.61 169.341 790.973 175.504 805.996 175.504C832.19 175.504 853.954 153.355 853.954 124.85C853.954 96.1526 832.19 74.1962 805.996 74.1962ZM802.722 155.666C785.388 155.666 772.291 142.762 772.291 124.85C772.291 106.938 785.388 94.034 802.722 94.034C820.056 94.034 833.153 106.938 833.153 124.85C833.153 142.762 820.056 155.666 802.722 155.666Z" fill="white"/>
<path d="M68.368 68.3131L123.462 37.5409L114.196 18.9287L63.7496 40.2613C62.4497 40.8113 61.0118 40.8113 59.712 40.2613L9.26562 18.9287L0 37.5409L55.0935 68.3131L0 99.0857L9.26562 117.698L59.712 96.3649C61.0118 95.8153 62.4497 95.8153 63.7496 96.3649L114.196 117.698L123.462 99.0857L68.368 68.3131Z" fill="#D3D6FF"/>
</svg>
