<svg width="28" height="28" viewBox="0 0 28 28" fill="none" xmlns="http://www.w3.org/2000/svg">
<path d="M12.292 12.292C11.349 13.235 11.349 14.7649 12.292 15.708C12.7602 16.1762 13.3801 16.4136 14 16.4136C14.6199 16.4136 15.2397 16.1762 15.708 15.708C16.651 14.7649 16.651 13.235 15.708 12.292C14.7649 11.349 13.2284 11.349 12.2854 12.292H12.292Z" fill="#1B1E56"/>
<path d="M21.6759 21.6759C20.7329 22.6189 20.7329 24.1555 21.6759 25.0985C22.131 25.5535 22.7376 25.8041 23.3839 25.8041C24.0302 25.8041 24.6368 25.5535 25.0919 25.0985C26.0349 24.1555 26.0349 22.6255 25.0919 21.6825C24.1489 20.7395 22.6189 20.7395 21.6759 21.6825V21.6759Z" fill="#1B1E56"/>
<path d="M4.61608 7.02965C5.23596 7.02965 5.85584 6.79225 6.32404 6.32404C7.26705 5.38104 7.26705 3.84453 6.32404 2.90153C5.38104 1.95852 3.85113 1.95852 2.90812 2.90153C1.96512 3.84453 1.96512 5.38104 2.90812 6.32404C3.37633 6.79225 3.9962 7.02965 4.61608 7.02965Z" fill="#1B1E56"/>
<path d="M23.3839 7.0363C24.0302 7.0363 24.6368 6.78571 25.0919 6.33069C26.0349 5.38769 26.0349 3.85778 25.0919 2.91477C24.6368 2.45976 24.0302 2.20917 23.3839 2.20917C22.7376 2.20917 22.131 2.45976 21.6759 2.91477C20.7329 3.85778 20.7329 5.39428 21.6759 6.33729C22.131 6.7923 22.7376 7.04289 23.3839 7.04289V7.0363Z" fill="#1B1E56"/>
<path d="M2.90812 21.6759C1.96512 22.6189 1.96512 24.1555 2.90812 25.0985C3.37633 25.5667 3.9962 25.8041 4.61608 25.8041C5.23596 25.8041 5.85584 25.5667 6.32404 25.0985C7.26705 24.1555 7.26705 22.6189 6.32404 21.6759C5.38104 20.7329 3.85113 20.7329 2.90812 21.6759Z" fill="#1B1E56"/>
<path d="M16.3608 16.3608C16.0509 16.6707 16.0509 17.1719 16.3608 17.4819C16.5191 17.6335 16.7169 17.7127 16.9213 17.7127C17.1258 17.7127 17.3302 17.6335 17.4819 17.4819C17.7918 17.1719 17.7918 16.6707 17.4819 16.3608C17.1719 16.0509 16.6707 16.0509 16.3608 16.3608V16.3608Z" fill="#1B1E56"/>
<path d="M18.1281 19.2492C18.2798 19.4009 18.4777 19.48 18.6887 19.48C18.8997 19.48 19.0975 19.4009 19.2492 19.2492C19.5591 18.9393 19.5591 18.4381 19.2492 18.1281C19.0975 17.9765 18.8997 17.8973 18.6887 17.8973C18.4777 17.8973 18.2798 17.9765 18.1281 18.1281C17.8182 18.4381 17.8182 18.9393 18.1281 19.2492Z" fill="#1B1E56"/>
<path d="M21.2539 20.4625C21.2539 20.2515 21.1747 20.0537 21.0231 19.902C20.8714 19.7503 20.6736 19.6712 20.4625 19.6712C20.2515 19.6712 20.0537 19.7503 19.902 19.902C19.7503 20.0537 19.6712 20.2515 19.6712 20.4625C19.6712 20.6736 19.7503 20.8714 19.902 21.0231C20.0537 21.1747 20.2515 21.2539 20.4625 21.2539C20.6736 21.2539 20.8714 21.1747 21.0231 21.0231C21.1747 20.8714 21.2539 20.6736 21.2539 20.4625Z" fill="#1B1E56"/>
<path d="M6.9769 6.9769C6.82523 7.12857 6.74609 7.32641 6.74609 7.53743C6.74609 7.74845 6.82523 7.94628 6.9769 8.09795C7.12857 8.24963 7.333 8.32876 7.53743 8.32876C7.74185 8.32876 7.94628 8.24963 8.09795 8.09795C8.24963 7.94628 8.32876 7.74845 8.32876 7.53743C8.32876 7.32641 8.24963 7.12857 8.09795 6.9769C7.78802 6.66696 7.28684 6.66696 6.9769 6.9769Z" fill="#1B1E56"/>
<path d="M9.30476 10.1027C9.51578 10.1027 9.71362 10.0236 9.86529 9.87188C10.1752 9.56194 10.1752 9.06076 9.86529 8.75083C9.71362 8.59915 9.51578 8.52002 9.30476 8.52002C9.09374 8.52002 8.89591 8.59915 8.74423 8.75083C8.4343 9.06076 8.4343 9.56194 8.74423 9.87188C8.89591 10.0236 9.09374 10.1027 9.30476 10.1027Z" fill="#1B1E56"/>
<path d="M10.5182 10.5182C10.2082 10.8281 10.2082 11.3293 10.5182 11.6392C10.6764 11.7909 10.8743 11.87 11.0787 11.87C11.2831 11.87 11.4875 11.7909 11.6392 11.6392C11.9492 11.3293 11.9492 10.8281 11.6392 10.5182C11.3293 10.2082 10.8281 10.2082 10.5182 10.5182V10.5182Z" fill="#1B1E56"/>
<path d="M10.5182 17.4819C10.6764 17.6401 10.8743 17.7127 11.0787 17.7127C11.2831 17.7127 11.4875 17.6335 11.6392 17.4819C11.9492 17.1719 11.9492 16.6707 11.6392 16.3608C11.3293 16.0509 10.8281 16.0509 10.5182 16.3608C10.2082 16.6707 10.2082 17.1719 10.5182 17.4819V17.4819Z" fill="#1B1E56"/>
<path d="M8.74423 19.2492C8.89591 19.4009 9.09374 19.48 9.30476 19.48C9.51578 19.48 9.71362 19.4009 9.86529 19.2492C10.1752 18.9393 10.1752 18.4381 9.86529 18.1281C9.71362 17.9765 9.51578 17.8973 9.30476 17.8973C9.09374 17.8973 8.89591 17.9765 8.74423 18.1281C8.4343 18.4381 8.4343 18.9393 8.74423 19.2492Z" fill="#1B1E56"/>
<path d="M6.9769 19.902C6.82523 20.0537 6.74609 20.2515 6.74609 20.4625C6.74609 20.6736 6.82523 20.8714 6.9769 21.0231C7.12857 21.1747 7.333 21.2539 7.53743 21.2539C7.74185 21.2539 7.94628 21.1747 8.09795 21.0231C8.24963 20.8714 8.32876 20.6736 8.32876 20.4625C8.32876 20.2515 8.24963 20.0537 8.09795 19.902C7.78802 19.5921 7.28684 19.5921 6.9769 19.902Z" fill="#1B1E56"/>
<path d="M20.4625 8.32876C20.6736 8.32876 20.8714 8.24963 21.0231 8.09795C21.1747 7.94628 21.2539 7.74845 21.2539 7.53743C21.2539 7.32641 21.1747 7.12857 21.0231 6.9769C20.8714 6.82523 20.6736 6.74609 20.4625 6.74609C20.2515 6.74609 20.0537 6.82523 19.902 6.9769C19.7503 7.12857 19.6712 7.32641 19.6712 7.53743C19.6712 7.74845 19.7503 7.94628 19.902 8.09795C20.0537 8.24963 20.2515 8.32876 20.4625 8.32876Z" fill="#1B1E56"/>
<path d="M18.6887 10.1027C18.8997 10.1027 19.0975 10.0236 19.2492 9.87188C19.5591 9.56194 19.5591 9.06076 19.2492 8.75083C19.0975 8.59915 18.8997 8.52002 18.6887 8.52002C18.4777 8.52002 18.2798 8.59915 18.1281 8.75083C17.8182 9.06076 17.8182 9.56194 18.1281 9.87188C18.2798 10.0236 18.4777 10.1027 18.6887 10.1027Z" fill="#1B1E56"/>
<path d="M17.4819 10.5182C17.1719 10.2082 16.6707 10.2082 16.3608 10.5182C16.0509 10.8281 16.0509 11.3293 16.3608 11.6392C16.5191 11.7975 16.7169 11.87 16.9213 11.87C17.1258 11.87 17.3302 11.7909 17.4819 11.6392C17.7918 11.3293 17.7918 10.8281 17.4819 10.5182V10.5182Z" fill="#1B1E56"/>
<path d="M22.5596 8.55959L22.5002 8.50684L21.4913 9.51579L25.9755 14L21.5506 18.4249L21.4913 18.4842L22.5002 19.4932L27.9406 14.0594L28 14L22.5596 8.55959Z" fill="#4952FC"/>
<path d="M5.49317 19.4932L6.50871 18.4842L2.02449 14L6.44936 9.57514L6.50871 9.51579L5.49317 8.50684L0.05935 13.9407L0 14L5.43382 19.4338L5.49317 19.4932Z" fill="#1B1E56"/>
<path d="M14 25.9755L9.57514 21.5506L9.51579 21.4913L8.50684 22.5002L13.9407 27.9406L14 28L19.4338 22.5596L19.4932 22.5002L18.4842 21.4913L14 25.9755Z" fill="#1B1E56"/>
<path d="M14 0L8.55959 5.44041L8.50684 5.49317L9.51579 6.50871L14 2.02449L18.4249 6.44936L18.4842 6.50871L19.4932 5.49317L14.0594 0.05935L14 0Z" fill="#1B1E56"/>
</svg>
