<svg width="28" height="28" viewBox="0 0 28 28" fill="none" xmlns="http://www.w3.org/2000/svg">
<path d="M12.292 12.292C11.349 13.235 11.349 14.7649 12.292 15.708C12.7602 16.1762 13.3801 16.4136 13.9999 16.4136C14.6198 16.4136 15.2397 16.1762 15.7079 15.708C16.6509 14.7649 16.6509 13.235 15.7079 12.292C14.7649 11.349 13.2284 11.349 12.2854 12.292H12.292Z" fill="#D3D6FF"/>
<path d="M21.676 21.6759C20.733 22.6189 20.733 24.1555 21.676 25.0985C22.131 25.5535 22.7377 25.8041 23.384 25.8041C24.0302 25.8041 24.6369 25.5535 25.0919 25.0985C26.0349 24.1555 26.0349 22.6255 25.0919 21.6825C24.1489 20.7395 22.619 20.7395 21.676 21.6825V21.6759Z" fill="#D3D6FF"/>
<path d="M4.61614 7.02968C5.23602 7.02968 5.8559 6.79228 6.3241 6.32408C7.26711 5.38107 7.26711 3.84456 6.3241 2.90156C5.3811 1.95855 3.85119 1.95855 2.90818 2.90156C1.96518 3.84456 1.96518 5.38107 2.90818 6.32408C3.37639 6.79228 3.99626 7.02968 4.61614 7.02968Z" fill="#D3D6FF"/>
<path d="M23.384 7.03627C24.0302 7.03627 24.6369 6.78568 25.0919 6.33066C26.0349 5.38766 26.0349 3.85775 25.0919 2.91474C24.6369 2.45973 24.0302 2.20914 23.384 2.20914C22.7377 2.20914 22.131 2.45973 21.676 2.91474C20.733 3.85775 20.733 5.39425 21.676 6.33726C22.131 6.79227 22.7377 7.04286 23.384 7.04286V7.03627Z" fill="#D3D6FF"/>
<path d="M2.90818 21.6759C1.96518 22.6189 1.96518 24.1555 2.90818 25.0985C3.37639 25.5667 3.99626 25.8041 4.61614 25.8041C5.23602 25.8041 5.8559 25.5667 6.3241 25.0985C7.26711 24.1555 7.26711 22.6189 6.3241 21.6759C5.3811 20.7329 3.85119 20.7329 2.90818 21.6759Z" fill="#D3D6FF"/>
<path d="M16.3609 16.3608C16.0509 16.6707 16.0509 17.1719 16.3609 17.4819C16.5191 17.6335 16.717 17.7127 16.9214 17.7127C17.1258 17.7127 17.3303 17.6335 17.4819 17.4819C17.7919 17.1719 17.7919 16.6707 17.4819 16.3608C17.172 16.0509 16.6708 16.0509 16.3609 16.3608Z" fill="#D3D6FF"/>
<path d="M18.1282 19.2492C18.2799 19.4008 18.4777 19.48 18.6887 19.48C18.8998 19.48 19.0976 19.4008 19.2493 19.2492C19.5592 18.9392 19.5592 18.4381 19.2493 18.1281C19.0976 17.9764 18.8998 17.8973 18.6887 17.8973C18.4777 17.8973 18.2799 17.9764 18.1282 18.1281C17.8183 18.4381 17.8183 18.9392 18.1282 19.2492Z" fill="#D3D6FF"/>
<path d="M21.2538 20.4625C21.2538 20.2515 21.1747 20.0537 21.023 19.902C20.8713 19.7503 20.6735 19.6712 20.4625 19.6712C20.2515 19.6712 20.0536 19.7503 19.9019 19.902C19.7503 20.0537 19.6711 20.2515 19.6711 20.4625C19.6711 20.6736 19.7503 20.8714 19.9019 21.0231C20.0536 21.1747 20.2515 21.2539 20.4625 21.2539C20.6735 21.2539 20.8713 21.1747 21.023 21.0231C21.1747 20.8714 21.2538 20.6736 21.2538 20.4625Z" fill="#D3D6FF"/>
<path d="M6.9769 6.97693C6.82523 7.1286 6.74609 7.32644 6.74609 7.53746C6.74609 7.74848 6.82523 7.94631 6.9769 8.09799C7.12857 8.24966 7.333 8.32879 7.53743 8.32879C7.74185 8.32879 7.94628 8.24966 8.09795 8.09799C8.24963 7.94631 8.32876 7.74848 8.32876 7.53746C8.32876 7.32644 8.24963 7.1286 8.09795 6.97693C7.78802 6.66699 7.28684 6.66699 6.9769 6.97693Z" fill="#D3D6FF"/>
<path d="M9.3047 10.1027C9.51572 10.1027 9.71356 10.0236 9.86523 9.87188C10.1752 9.56194 10.1752 9.06076 9.86523 8.75083C9.71356 8.59915 9.51572 8.52002 9.3047 8.52002C9.09368 8.52002 8.89584 8.59915 8.74417 8.75083C8.43423 9.06076 8.43423 9.56194 8.74417 9.87188C8.89584 10.0236 9.09368 10.1027 9.3047 10.1027Z" fill="#D3D6FF"/>
<path d="M10.5181 10.5181C10.2082 10.8281 10.2082 11.3292 10.5181 11.6392C10.6764 11.7909 10.8742 11.87 11.0786 11.87C11.2831 11.87 11.4875 11.7909 11.6392 11.6392C11.9491 11.3292 11.9491 10.8281 11.6392 10.5181C11.3292 10.2082 10.828 10.2082 10.5181 10.5181Z" fill="#D3D6FF"/>
<path d="M10.5181 17.4819C10.6764 17.6401 10.8742 17.7127 11.0786 17.7127C11.2831 17.7127 11.4875 17.6335 11.6392 17.4819C11.9491 17.1719 11.9491 16.6707 11.6392 16.3608C11.3292 16.0509 10.828 16.0509 10.5181 16.3608C10.2082 16.6707 10.2082 17.1719 10.5181 17.4819Z" fill="#D3D6FF"/>
<path d="M8.74417 19.2492C8.89584 19.4008 9.09368 19.48 9.3047 19.48C9.51572 19.48 9.71356 19.4008 9.86523 19.2492C10.1752 18.9392 10.1752 18.4381 9.86523 18.1281C9.71356 17.9764 9.51572 17.8973 9.3047 17.8973C9.09368 17.8973 8.89584 17.9764 8.74417 18.1281C8.43423 18.4381 8.43423 18.9392 8.74417 19.2492Z" fill="#D3D6FF"/>
<path d="M6.9769 19.902C6.82523 20.0537 6.74609 20.2515 6.74609 20.4626C6.74609 20.6736 6.82523 20.8714 6.9769 21.0231C7.12857 21.1748 7.333 21.2539 7.53743 21.2539C7.74185 21.2539 7.94628 21.1748 8.09795 21.0231C8.24963 20.8714 8.32876 20.6736 8.32876 20.4626C8.32876 20.2515 8.24963 20.0537 8.09795 19.902C7.78802 19.5921 7.28684 19.5921 6.9769 19.902Z" fill="#D3D6FF"/>
<path d="M20.4625 8.32879C20.6735 8.32879 20.8713 8.24966 21.023 8.09798C21.1747 7.94631 21.2538 7.74848 21.2538 7.53746C21.2538 7.32644 21.1747 7.1286 21.023 6.97693C20.8713 6.82526 20.6735 6.74612 20.4625 6.74612C20.2515 6.74612 20.0536 6.82526 19.9019 6.97693C19.7503 7.1286 19.6711 7.32644 19.6711 7.53746C19.6711 7.74848 19.7503 7.94631 19.9019 8.09798C20.0536 8.24966 20.2515 8.32879 20.4625 8.32879Z" fill="#D3D6FF"/>
<path d="M18.6887 10.1027C18.8998 10.1027 19.0976 10.0236 19.2493 9.87188C19.5592 9.56194 19.5592 9.06076 19.2493 8.75083C19.0976 8.59915 18.8998 8.52002 18.6887 8.52002C18.4777 8.52002 18.2799 8.59915 18.1282 8.75083C17.8183 9.06076 17.8183 9.56194 18.1282 9.87188C18.2799 10.0236 18.4777 10.1027 18.6887 10.1027Z" fill="#D3D6FF"/>
<path d="M17.4819 10.5181C17.172 10.2082 16.6708 10.2082 16.3609 10.5181C16.0509 10.8281 16.0509 11.3292 16.3609 11.6392C16.5191 11.7975 16.717 11.87 16.9214 11.87C17.1258 11.87 17.3303 11.7909 17.4819 11.6392C17.7919 11.3292 17.7919 10.8281 17.4819 10.5181Z" fill="#D3D6FF"/>
<path d="M22.5595 8.55959L22.5002 8.50684L21.4912 9.51579L25.9754 14L21.5506 18.4249L21.4912 18.4842L22.5002 19.4932L27.9406 14.0594L27.9999 14L22.5595 8.55959Z" fill="#27AE7D"/>
<path d="M5.49317 19.4932L6.50871 18.4842L2.02449 14L6.44936 9.57514L6.50871 9.51579L5.49317 8.50684L0.05935 13.9407L0 14L5.43382 19.4338L5.49317 19.4932Z" fill="#D3D6FF"/>
<path d="M14 25.9755L9.57514 21.5506L9.51579 21.4913L8.50684 22.5002L13.9407 27.9406L14 28L19.4338 22.5596L19.4932 22.5002L18.4842 21.4913L14 25.9755Z" fill="#D3D6FF"/>
<path d="M14 0L8.55959 5.44041L8.50684 5.49317L9.51579 6.50871L14 2.02449L18.4249 6.44936L18.4842 6.50871L19.4932 5.49317L14.0594 0.05935L14 0Z" fill="#D3D6FF"/>
</svg>
