<svg width="410" height="102" viewBox="0 0 410 102" fill="none" xmlns="http://www.w3.org/2000/svg">
<path d="M104.277 17.9635H79.1195V82H104.277C121.932 82 134.923 67.8205 134.923 49.9818C134.923 32.0515 121.932 17.9635 104.277 17.9635ZM104.277 71.9371H89.6397V28.0264H104.277C116.444 28.0264 124.768 37.2659 124.768 49.9818C124.768 62.6061 116.444 71.9371 104.277 71.9371ZM151.649 63.3379H188.059C188.242 62.0572 188.425 60.5935 188.425 59.2213C188.425 46.0481 179.094 35.0704 165.463 35.0704C151.1 35.0704 141.312 45.5907 141.312 59.1298C141.312 72.8519 151.1 83.1892 166.195 83.1892C175.16 83.1892 182.021 79.4385 186.229 73.2179L178.087 68.4609C175.892 71.6627 171.775 74.1327 166.286 74.1327C158.968 74.1327 153.205 70.4734 151.649 63.3379ZM151.558 55.2876C152.93 48.4266 157.962 44.0355 165.371 44.0355C171.318 44.0355 177.081 47.4203 178.453 55.2876H151.558ZM226.343 36.2597L213.628 71.0223L200.82 36.2597H190.026L207.864 82H219.299L237.138 36.2597H226.343Z" fill="#D3D6FF"/>
<path d="M281.999 17.9635V44.2185H254.555V17.9635H244.035V82H254.555V54.2813H281.999V82H292.52V17.9635H281.999ZM335.508 36.2597V60.7765C335.508 70.1075 330.385 73.9497 323.89 73.9497C317.67 73.9497 313.645 70.2905 313.645 63.3379V36.2597H303.765V64.3442C303.765 76.2367 311.083 83.1892 321.329 83.1892C327.55 83.1892 332.49 80.9022 335.508 76.1452V82H345.388V36.2597H335.508ZM382.83 35.0704C375.695 35.0704 370.298 37.9978 366.821 42.7548V17.9635H356.941V82H366.821V75.4134C370.298 80.2619 375.695 83.1892 382.83 83.1892C395.272 83.1892 405.609 72.669 405.609 59.1298C405.609 45.4992 395.272 35.0704 382.83 35.0704ZM381.275 73.7667C373.042 73.7667 366.821 67.6375 366.821 59.1298C366.821 50.6221 373.042 44.4929 381.275 44.4929C389.508 44.4929 395.729 50.6221 395.729 59.1298C395.729 67.6375 389.508 73.7667 381.275 73.7667Z" fill="#27AE7D"/>
<path d="M32.4733 32.4467L58.6415 17.8306L54.2405 8.99023L30.2796 19.1227C29.6622 19.384 28.9792 19.384 28.3618 19.1227L4.40096 8.99023L0 17.8306L26.1682 32.4467L0 47.063L4.40096 55.9034L28.3618 45.7707C28.9792 45.5097 29.6622 45.5097 30.2796 45.7707L54.2405 55.9034L58.6415 47.063L32.4733 32.4467Z" fill="#27AE7D"/>
</svg>
