<svg width="409" height="102" viewBox="0 0 409 102" fill="none" xmlns="http://www.w3.org/2000/svg">
<path d="M104.153 18.0392H79.026V82H104.153C121.788 82 134.763 67.8373 134.763 50.0196C134.763 32.1106 121.788 18.0392 104.153 18.0392ZM104.153 71.949H89.5338V28.0902H104.153C116.306 28.0902 124.621 37.3188 124.621 50.0196C124.621 62.629 116.306 71.949 104.153 71.949ZM151.47 63.36H187.836C188.019 62.0808 188.202 60.6188 188.202 59.2482C188.202 46.0906 178.882 35.1259 165.267 35.1259C150.922 35.1259 141.145 45.6337 141.145 59.1569C141.145 72.8627 150.922 83.1878 165.998 83.1878C174.953 83.1878 181.806 79.4416 186.009 73.2282L177.877 68.4769C175.684 71.6749 171.572 74.142 166.09 74.142C158.78 74.142 153.023 70.4871 151.47 63.36ZM151.379 55.3192C152.749 48.4663 157.775 44.0804 165.176 44.0804C171.115 44.0804 176.872 47.4612 178.242 55.3192H151.379ZM226.076 36.3137L213.375 71.0353L200.583 36.3137H189.801L207.619 82H219.04L236.858 36.3137H226.076Z" fill="#1B1E56"/>
<path d="M281.666 18.0392V44.2631H254.254V18.0392H243.746V82H254.254V54.3141H281.666V82H292.174V18.0392H281.666ZM335.112 36.3137V60.8016C335.112 70.1216 329.995 73.9592 323.507 73.9592C317.294 73.9592 313.274 70.3043 313.274 63.36V36.3137H303.406V64.3651C303.406 76.2435 310.715 83.1878 320.949 83.1878C327.162 83.1878 332.096 80.9035 335.112 76.1522V82H344.98V36.3137H335.112ZM382.378 35.1259C375.251 35.1259 369.86 38.0498 366.388 42.8012V18.0392H356.519V82H366.388V75.4212C369.86 80.2639 375.251 83.1878 382.378 83.1878C394.804 83.1878 405.13 72.68 405.13 59.1569C405.13 45.5424 394.804 35.1259 382.378 35.1259ZM380.824 73.7765C372.601 73.7765 366.388 67.6545 366.388 59.1569C366.388 50.6592 372.601 44.5373 380.824 44.5373C389.048 44.5373 395.261 50.6592 395.261 59.1569C395.261 67.6545 389.048 73.7765 380.824 73.7765Z" fill="#4952FC"/>
<path d="M32.4349 32.4092L58.5721 17.8104L54.1764 8.98047L30.2438 19.101C29.6272 19.3619 28.945 19.3619 28.3283 19.101L4.39576 8.98047L0 17.8104L26.1373 32.4092L0 47.0082L4.39576 55.8382L28.3283 45.7174C28.945 45.4567 29.6272 45.4567 30.2438 45.7174L54.1764 55.8382L58.5721 47.0082L32.4349 32.4092Z" fill="#4952FC"/>
</svg>
