<svg width="197" height="40" viewBox="0 0 197 40" fill="none" xmlns="http://www.w3.org/2000/svg">
<path d="M53.4382 26V12.9091H61.6456V14.6094H55.4134V18.598H61.2173V20.2919H55.4134V24.2997H61.7223V26H53.4382ZM66.0417 12.9091V26H64.1305V12.9091H66.0417ZM68.6129 26V16.1818H70.4602V17.7415H70.5625C70.7415 17.2131 71.0568 16.7976 71.5085 16.495C71.9645 16.1882 72.4801 16.0348 73.0554 16.0348C73.1747 16.0348 73.3153 16.0391 73.4773 16.0476C73.6435 16.0561 73.7734 16.0668 73.8672 16.0795V17.9077C73.7905 17.8864 73.6541 17.8629 73.4581 17.8374C73.2621 17.8075 73.0661 17.7926 72.87 17.7926C72.4183 17.7926 72.0156 17.8885 71.6619 18.0803C71.3125 18.2678 71.0355 18.5298 70.831 18.8665C70.6264 19.1989 70.5241 19.5781 70.5241 20.0043V26H68.6129ZM79.3052 26.1982C78.3848 26.1982 77.5815 25.9872 76.8954 25.5653C76.2093 25.1435 75.6767 24.5533 75.2974 23.7947C74.9181 23.0362 74.7285 22.1499 74.7285 21.1357C74.7285 20.1172 74.9181 19.2266 75.2974 18.4638C75.6767 17.701 76.2093 17.1087 76.8954 16.6868C77.5815 16.2649 78.3848 16.054 79.3052 16.054C80.2257 16.054 81.0289 16.2649 81.715 16.6868C82.4011 17.1087 82.9338 17.701 83.313 18.4638C83.6923 19.2266 83.8819 20.1172 83.8819 21.1357C83.8819 22.1499 83.6923 23.0362 83.313 23.7947C82.9338 24.5533 82.4011 25.1435 81.715 25.5653C81.0289 25.9872 80.2257 26.1982 79.3052 26.1982ZM79.3116 24.5938C79.9082 24.5938 80.4025 24.4361 80.7946 24.1207C81.1866 23.8054 81.4764 23.3857 81.6639 22.8615C81.8556 22.3374 81.9515 21.7599 81.9515 21.1293C81.9515 20.5028 81.8556 19.9276 81.6639 19.4034C81.4764 18.875 81.1866 18.451 80.7946 18.1314C80.4025 17.8118 79.9082 17.652 79.3116 17.652C78.7108 17.652 78.2122 17.8118 77.8159 18.1314C77.4238 18.451 77.1319 18.875 76.9402 19.4034C76.7527 19.9276 76.6589 20.5028 76.6589 21.1293C76.6589 21.7599 76.7527 22.3374 76.9402 22.8615C77.1319 23.3857 77.4238 23.8054 77.8159 24.1207C78.2122 24.4361 78.7108 24.5938 79.3116 24.5938ZM87.9265 20.1705V26H86.0153V16.1818H87.8498V17.7798H87.9712C88.1971 17.2599 88.5508 16.8423 89.0323 16.527C89.5181 16.2116 90.1296 16.054 90.8668 16.054C91.5359 16.054 92.1218 16.1946 92.6246 16.4759C93.1275 16.7528 93.5174 17.1662 93.7944 17.7159C94.0714 18.2656 94.2099 18.9453 94.2099 19.755V26H92.2987V19.9851C92.2987 19.2734 92.1133 18.7173 91.7425 18.3168C91.3718 17.9119 90.8626 17.7095 90.2148 17.7095C89.7717 17.7095 89.3775 17.8054 89.0323 17.9972C88.6914 18.1889 88.4208 18.4702 88.2205 18.8409C88.0245 19.2074 87.9265 19.6506 87.9265 20.1705ZM100.449 26.1918C99.6559 26.1918 98.9485 25.9893 98.3263 25.5845C97.7085 25.1754 97.2227 24.5937 96.869 23.8395C96.5195 23.081 96.3448 22.1712 96.3448 21.1101C96.3448 20.049 96.5217 19.1413 96.8754 18.3871C97.2333 17.6328 97.7234 17.0554 98.3455 16.6548C98.9677 16.2543 99.6729 16.054 100.461 16.054C101.071 16.054 101.561 16.1562 101.931 16.3608C102.306 16.5611 102.596 16.7955 102.801 17.0639C103.01 17.3324 103.172 17.5689 103.287 17.7734H103.402V12.9091H105.313V26H103.446V24.4723H103.287C103.172 24.6811 103.005 24.9197 102.788 25.1882C102.575 25.4567 102.281 25.6911 101.906 25.8913C101.531 26.0916 101.045 26.1918 100.449 26.1918ZM100.87 24.5618C101.42 24.5618 101.885 24.4169 102.264 24.1271C102.647 23.8331 102.937 23.4261 103.133 22.9062C103.333 22.3864 103.434 21.7812 103.434 21.0909C103.434 20.4091 103.336 19.8125 103.14 19.3011C102.944 18.7898 102.656 18.3913 102.277 18.1058C101.897 17.8203 101.429 17.6776 100.87 17.6776C100.295 17.6776 99.8157 17.8267 99.4322 18.125C99.0487 18.4233 98.7589 18.8303 98.5629 19.3459C98.3711 19.8615 98.2752 20.4432 98.2752 21.0909C98.2752 21.7472 98.3732 22.3374 98.5692 22.8615C98.7653 23.3857 99.055 23.8011 99.4386 24.108C99.8263 24.4105 100.304 24.5618 100.87 24.5618ZM109.683 12.9091V14.1364C109.683 14.4986 109.615 14.88 109.479 15.2805C109.347 15.6768 109.159 16.0582 108.916 16.4247C108.673 16.7912 108.388 17.1065 108.06 17.3707L107.114 16.6932C107.365 16.3267 107.583 15.9368 107.766 15.5234C107.953 15.1101 108.047 14.6541 108.047 14.1555V12.9091H109.683ZM117.648 18.5788L115.916 18.8857C115.843 18.6641 115.728 18.4531 115.57 18.2528C115.417 18.0526 115.208 17.8885 114.944 17.7607C114.68 17.6328 114.35 17.5689 113.953 17.5689C113.412 17.5689 112.96 17.6903 112.598 17.9332C112.236 18.1719 112.055 18.4808 112.055 18.8601C112.055 19.1882 112.176 19.4524 112.419 19.6527C112.662 19.853 113.054 20.017 113.595 20.1449L115.155 20.5028C116.058 20.7116 116.732 21.0334 117.175 21.468C117.618 21.9027 117.84 22.4673 117.84 23.1619C117.84 23.75 117.669 24.2741 117.328 24.7344C116.992 25.1903 116.521 25.5483 115.916 25.8082C115.315 26.0682 114.618 26.1982 113.825 26.1982C112.726 26.1982 111.829 25.9638 111.134 25.495C110.44 25.022 110.014 24.3509 109.856 23.4815L111.703 23.2003C111.818 23.6818 112.055 24.0462 112.413 24.2933C112.771 24.5362 113.237 24.6577 113.813 24.6577C114.439 24.6577 114.94 24.5277 115.315 24.2678C115.69 24.0036 115.877 23.6818 115.877 23.3026C115.877 22.9957 115.762 22.7379 115.532 22.5291C115.306 22.3203 114.959 22.1626 114.49 22.0561L112.828 21.6918C111.912 21.483 111.235 21.1506 110.796 20.6946C110.361 20.2386 110.144 19.6612 110.144 18.9624C110.144 18.3828 110.306 17.8757 110.629 17.4411C110.953 17.0064 111.401 16.6676 111.972 16.4247C112.543 16.1776 113.197 16.054 113.934 16.054C114.995 16.054 115.83 16.2841 116.44 16.7443C117.049 17.2003 117.452 17.8118 117.648 18.5788ZM129.096 26H124.858V12.9091H129.23C130.513 12.9091 131.615 13.1712 132.535 13.6953C133.455 14.2152 134.161 14.9631 134.651 15.9389C135.145 16.9105 135.392 18.076 135.392 19.4354C135.392 20.799 135.143 21.9709 134.644 22.951C134.15 23.9311 133.434 24.6854 132.497 25.2138C131.559 25.7379 130.426 26 129.096 26ZM126.833 24.2741H128.987C129.985 24.2741 130.813 24.0866 131.474 23.7116C132.134 23.3324 132.629 22.7848 132.957 22.0689C133.285 21.3487 133.449 20.4709 133.449 19.4354C133.449 18.4084 133.285 17.5369 132.957 16.821C132.633 16.1051 132.149 15.5618 131.506 15.1911C130.862 14.8203 130.063 14.6349 129.109 14.6349H126.833V24.2741ZM141.926 26.1982C140.959 26.1982 140.126 25.9915 139.427 25.5781C138.733 25.1605 138.196 24.5746 137.816 23.8203C137.441 23.0618 137.254 22.1733 137.254 21.1548C137.254 20.1491 137.441 19.2628 137.816 18.4957C138.196 17.7287 138.724 17.13 139.402 16.6996C140.083 16.2692 140.88 16.054 141.792 16.054C142.346 16.054 142.883 16.1456 143.403 16.3288C143.923 16.5121 144.39 16.7997 144.803 17.1918C145.216 17.5838 145.542 18.093 145.781 18.7195C146.02 19.3416 146.139 20.098 146.139 20.9886V21.6662H138.334V20.2344H144.266C144.266 19.7315 144.164 19.2862 143.959 18.8984C143.755 18.5064 143.467 18.1974 143.096 17.9716C142.73 17.7457 142.299 17.6328 141.805 17.6328C141.268 17.6328 140.799 17.7649 140.399 18.0291C140.002 18.2891 139.696 18.63 139.478 19.0518C139.265 19.4695 139.159 19.9233 139.159 20.4134V21.532C139.159 22.1882 139.274 22.7464 139.504 23.2067C139.738 23.6669 140.064 24.0185 140.482 24.2614C140.9 24.5 141.387 24.6193 141.946 24.6193C142.308 24.6193 142.638 24.5682 142.936 24.4659C143.235 24.3594 143.493 24.2017 143.71 23.9929C143.927 23.7841 144.093 23.5263 144.208 23.2195L146.017 23.5455C145.873 24.0781 145.613 24.5447 145.238 24.9453C144.867 25.3416 144.4 25.6506 143.838 25.8722C143.279 26.0895 142.642 26.1982 141.926 26.1982ZM156.377 16.1818L152.817 26H150.771L147.205 16.1818H149.257L151.743 23.7372H151.845L154.325 16.1818H156.377Z" fill="#D3D6FF"/>
<path d="M163.091 26V12.9091H165.066V18.598H171.592V12.9091H173.574V26H171.592V20.2919H165.066V26H163.091ZM182.516 21.9283V16.1818H184.434V26H182.554V24.2997H182.452C182.226 24.8239 181.864 25.2607 181.365 25.6101C180.871 25.9553 180.255 26.1278 179.518 26.1278C178.887 26.1278 178.329 25.9893 177.843 25.7124C177.362 25.4311 176.983 25.0156 176.706 24.4659C176.433 23.9162 176.297 23.2365 176.297 22.4268V16.1818H178.208V22.1967C178.208 22.8658 178.393 23.3984 178.764 23.7947C179.135 24.1911 179.616 24.3892 180.208 24.3892C180.566 24.3892 180.922 24.2997 181.276 24.1207C181.634 23.9418 181.93 23.6712 182.164 23.3089C182.403 22.9467 182.52 22.4865 182.516 21.9283ZM187.155 26V12.9091H189.066V17.7734H189.181C189.292 17.5689 189.452 17.3324 189.661 17.0639C189.869 16.7955 190.159 16.5611 190.53 16.3608C190.901 16.1562 191.391 16.054 192 16.054C192.793 16.054 193.5 16.2543 194.122 16.6548C194.744 17.0554 195.232 17.6328 195.586 18.3871C195.944 19.1413 196.123 20.049 196.123 21.1101C196.123 22.1712 195.946 23.081 195.593 23.8395C195.239 24.5937 194.753 25.1754 194.135 25.5845C193.517 25.9893 192.812 26.1918 192.019 26.1918C191.423 26.1918 190.935 26.0916 190.556 25.8913C190.181 25.6911 189.887 25.4567 189.673 25.1882C189.46 24.9197 189.296 24.6811 189.181 24.4723H189.021V26H187.155ZM189.028 21.0909C189.028 21.7812 189.128 22.3864 189.328 22.9062C189.529 23.4261 189.818 23.8331 190.198 24.1271C190.577 24.4169 191.041 24.5618 191.591 24.5618C192.162 24.5618 192.639 24.4105 193.023 24.108C193.406 23.8011 193.696 23.3857 193.892 22.8615C194.093 22.3374 194.193 21.7472 194.193 21.0909C194.193 20.4432 194.095 19.8615 193.899 19.3459C193.707 18.8303 193.417 18.4233 193.029 18.125C192.646 17.8267 192.166 17.6776 191.591 17.6776C191.037 17.6776 190.568 17.8203 190.185 18.1058C189.806 18.3913 189.518 18.7898 189.322 19.3011C189.126 19.8125 189.028 20.4091 189.028 21.0909Z" fill="#27AE7D"/>
<path d="M17.56 17.56C16.2129 18.9072 16.2129 21.0928 17.56 22.4399C18.2289 23.1088 19.1144 23.4479 20 23.4479C20.8855 23.4479 21.7711 23.1088 22.4399 22.4399C23.7871 21.0928 23.7871 18.9072 22.4399 17.56C21.0928 16.2129 18.8978 16.2129 17.5506 17.56H17.56Z" fill="#D3D6FF"/>
<path d="M30.9656 30.9656C29.6185 32.3128 29.6185 34.5078 30.9656 35.8549C31.6156 36.505 32.4823 36.8629 33.4056 36.8629C34.3288 36.8629 35.1955 36.505 35.8455 35.8549C37.1927 34.5078 37.1927 32.3222 35.8455 30.9751C34.4984 29.6279 32.3128 29.6279 30.9656 30.9751V30.9656Z" fill="#D3D6FF"/>
<path d="M6.59447 10.0424C7.48001 10.0424 8.36555 9.70324 9.03441 9.03438C10.3816 7.68722 10.3816 5.49222 9.03441 4.14507C7.68726 2.79792 5.50168 2.79792 4.15453 4.14507C2.80738 5.49222 2.80738 7.68722 4.15453 9.03438C4.82339 9.70324 5.70893 10.0424 6.59447 10.0424Z" fill="#D3D6FF"/>
<path d="M33.4056 10.0518C34.3288 10.0518 35.1955 9.69383 35.8455 9.04381C37.1927 7.69666 37.1927 5.51107 35.8455 4.16392C35.1955 3.5139 34.3288 3.15591 33.4056 3.15591C32.4823 3.15591 31.6156 3.5139 30.9656 4.16392C29.6185 5.51107 29.6185 7.70608 30.9656 9.05323C31.6156 9.70325 32.4823 10.0612 33.4056 10.0612V10.0518Z" fill="#D3D6FF"/>
<path d="M4.15453 30.9656C2.80738 32.3128 2.80738 34.5078 4.15453 35.8549C4.82339 36.5238 5.70893 36.8629 6.59447 36.8629C7.48001 36.8629 8.36555 36.5238 9.03441 35.8549C10.3816 34.5078 10.3816 32.3128 9.03441 30.9656C7.68726 29.6185 5.50168 29.6185 4.15453 30.9656Z" fill="#D3D6FF"/>
<path d="M23.3726 23.3726C22.9298 23.8153 22.9298 24.5313 23.3726 24.9741C23.5987 25.1908 23.8813 25.3038 24.1734 25.3038C24.4654 25.3038 24.7574 25.1908 24.9741 24.9741C25.4169 24.5313 25.4169 23.8153 24.9741 23.3726C24.5313 22.9298 23.8154 22.9298 23.3726 23.3726Z" fill="#D3D6FF"/>
<path d="M25.8973 27.4988C26.114 27.7155 26.3966 27.8285 26.6981 27.8285C26.9995 27.8285 27.2822 27.7155 27.4988 27.4988C27.9416 27.0561 27.9416 26.3401 27.4988 25.8973C27.2822 25.6806 26.9995 25.5676 26.6981 25.5676C26.3966 25.5676 26.114 25.6806 25.8973 25.8973C25.4546 26.3401 25.4546 27.0561 25.8973 27.4988Z" fill="#D3D6FF"/>
<path d="M30.3627 29.2322C30.3627 28.9308 30.2496 28.6481 30.033 28.4315C29.8163 28.2148 29.5337 28.1017 29.2322 28.1017C28.9308 28.1017 28.6481 28.2148 28.4315 28.4315C28.2148 28.6481 28.1017 28.9308 28.1017 29.2322C28.1017 29.5337 28.2148 29.8163 28.4315 30.033C28.6481 30.2496 28.9308 30.3627 29.2322 30.3627C29.5337 30.3627 29.8163 30.2496 30.033 30.033C30.2496 29.8163 30.3627 29.5337 30.3627 29.2322Z" fill="#D3D6FF"/>
<path d="M9.96705 9.96703C9.75038 10.1837 9.63733 10.4663 9.63733 10.7678C9.63733 11.0692 9.75038 11.3519 9.96705 11.5685C10.1837 11.7852 10.4758 11.8983 10.7678 11.8983C11.0598 11.8983 11.3519 11.7852 11.5686 11.5685C11.7852 11.3519 11.8983 11.0692 11.8983 10.7678C11.8983 10.4663 11.7852 10.1837 11.5686 9.96703C11.1258 9.52426 10.4098 9.52426 9.96705 9.96703Z" fill="#D3D6FF"/>
<path d="M13.2925 14.4324C13.594 14.4324 13.8766 14.3194 14.0933 14.1027C14.536 13.6599 14.536 12.9439 14.0933 12.5012C13.8766 12.2845 13.594 12.1714 13.2925 12.1714C12.991 12.1714 12.7084 12.2845 12.4917 12.5012C12.049 12.9439 12.049 13.6599 12.4917 14.1027C12.7084 14.3194 12.991 14.4324 13.2925 14.4324Z" fill="#D3D6FF"/>
<path d="M15.0259 15.0259C14.5832 15.4687 14.5832 16.1846 15.0259 16.6274C15.252 16.8441 15.5346 16.9571 15.8267 16.9571C16.1187 16.9571 16.4108 16.8441 16.6274 16.6274C17.0702 16.1846 17.0702 15.4687 16.6274 15.0259C16.1847 14.5831 15.4687 14.5831 15.0259 15.0259Z" fill="#D3D6FF"/>
<path d="M15.0259 24.9741C15.252 25.2002 15.5346 25.3038 15.8267 25.3038C16.1187 25.3038 16.4108 25.1908 16.6274 24.9741C17.0702 24.5313 17.0702 23.8153 16.6274 23.3726C16.1847 22.9298 15.4687 22.9298 15.0259 23.3726C14.5832 23.8153 14.5832 24.5313 15.0259 24.9741Z" fill="#D3D6FF"/>
<path d="M12.4917 27.4988C12.7084 27.7155 12.991 27.8285 13.2925 27.8285C13.594 27.8285 13.8766 27.7155 14.0933 27.4988C14.536 27.0561 14.536 26.3401 14.0933 25.8973C13.8766 25.6806 13.594 25.5676 13.2925 25.5676C12.991 25.5676 12.7084 25.6806 12.4917 25.8973C12.049 26.3401 12.049 27.0561 12.4917 27.4988Z" fill="#D3D6FF"/>
<path d="M9.96705 28.4315C9.75038 28.6481 9.63733 28.9308 9.63733 29.2322C9.63733 29.5337 9.75038 29.8163 9.96705 30.033C10.1837 30.2497 10.4758 30.3627 10.7678 30.3627C11.0598 30.3627 11.3519 30.2497 11.5686 30.033C11.7852 29.8163 11.8983 29.5337 11.8983 29.2322C11.8983 28.9308 11.7852 28.6481 11.5686 28.4315C11.1258 27.9887 10.4098 27.9887 9.96705 28.4315Z" fill="#D3D6FF"/>
<path d="M29.2322 11.8983C29.5337 11.8983 29.8163 11.7852 30.033 11.5685C30.2496 11.3519 30.3627 11.0692 30.3627 10.7678C30.3627 10.4663 30.2496 10.1837 30.033 9.96702C29.8163 9.75035 29.5337 9.6373 29.2322 9.6373C28.9308 9.6373 28.6481 9.75035 28.4315 9.96702C28.2148 10.1837 28.1017 10.4663 28.1017 10.7678C28.1017 11.0692 28.2148 11.3519 28.4315 11.5685C28.6481 11.7852 28.9308 11.8983 29.2322 11.8983Z" fill="#D3D6FF"/>
<path d="M26.6981 14.4324C26.9995 14.4324 27.2822 14.3194 27.4988 14.1027C27.9416 13.6599 27.9416 12.9439 27.4988 12.5012C27.2822 12.2845 26.9995 12.1714 26.6981 12.1714C26.3966 12.1714 26.114 12.2845 25.8973 12.5012C25.4546 12.9439 25.4546 13.6599 25.8973 14.1027C26.114 14.3194 26.3966 14.4324 26.6981 14.4324Z" fill="#D3D6FF"/>
<path d="M24.9741 15.0259C24.5313 14.5831 23.8154 14.5831 23.3726 15.0259C22.9298 15.4687 22.9298 16.1846 23.3726 16.6274C23.5987 16.8535 23.8813 16.9571 24.1734 16.9571C24.4654 16.9571 24.7574 16.8441 24.9741 16.6274C25.4169 16.1846 25.4169 15.4687 24.9741 15.0259Z" fill="#D3D6FF"/>
<path d="M32.228 12.228L32.1432 12.1526L30.7018 13.594L37.1079 20L30.7866 26.3212L30.7018 26.406L32.1432 27.8474L39.9152 20.0848L40 20L32.228 12.228Z" fill="#27AE7D"/>
<path d="M7.84738 27.8474L9.29816 26.406L2.89213 20L9.21338 13.6788L9.29816 13.594L7.84738 12.1526L0.0847857 19.9152L0 20L7.7626 27.7626L7.84738 27.8474Z" fill="#D3D6FF"/>
<path d="M20 37.1079L13.6787 30.7866L13.5939 30.7018L12.1526 32.1432L19.9152 39.9152L20 40L27.7626 32.228L27.8474 32.1432L26.406 30.7018L20 37.1079Z" fill="#D3D6FF"/>
<path d="M20 0L12.228 7.77202L12.1526 7.84738L13.5939 9.29816L20 2.89213L26.3212 9.21338L26.406 9.29816L27.8474 7.84738L20.0848 0.0847857L20 0Z" fill="#D3D6FF"/>
</svg>
