<svg width="16" height="16" viewBox="0 0 16 16" fill="none" xmlns="http://www.w3.org/2000/svg">
<path d="M15.7777 6.62735L15.4017 7.55748C15.2829 7.87412 15.2829 8.21056 15.4017 8.5272L15.7777 9.45733C15.9954 10.0115 15.8173 10.6447 15.3225 11.001L14.4913 11.5749C14.2143 11.7728 14.0361 12.0696 13.957 12.3863L13.7789 13.3758C13.6601 13.9695 13.1654 14.4049 12.5717 14.4247L11.5624 14.4642C11.2259 14.484 10.9093 14.6226 10.6718 14.86L9.97917 15.5923C9.56357 16.0277 8.9105 16.1266 8.39596 15.8298L7.52519 15.3152C7.22834 15.1371 6.89191 15.0975 6.55548 15.1767L5.56597 15.4142C4.99206 15.5527 4.37856 15.2756 4.1015 14.7413L3.64633 13.8309C3.48801 13.5341 3.23074 13.2966 2.91409 13.1977L1.96417 12.881C1.39026 12.6831 1.03403 12.129 1.0934 11.5353L1.19235 10.526C1.23193 10.1896 1.13298 9.85314 0.915293 9.59586L0.282009 8.80426C-0.0940031 8.3293 -0.0940031 7.67622 0.282009 7.20126L0.915293 6.40965C1.13298 6.15238 1.23193 5.81595 1.19235 5.47952L1.0934 4.47022C1.03403 3.87652 1.39026 3.3224 1.96417 3.12449L2.91409 2.80785C3.23074 2.7089 3.48801 2.47142 3.64633 2.17457L4.1015 1.26422C4.37856 0.729891 4.97227 0.452829 5.56597 0.59136L6.55548 0.828841C6.87212 0.908002 7.22834 0.868421 7.52519 0.69031L8.39596 0.175768C8.9105 -0.121084 9.56357 -0.0419239 9.97917 0.413249L10.6718 1.14548C10.9093 1.38296 11.2259 1.54129 11.5624 1.54129L12.5717 1.58087C13.1654 1.60066 13.6799 2.03604 13.7789 2.62974L13.957 3.61925C14.0164 3.95568 14.2143 4.25253 14.4913 4.43064L15.3225 5.00456C15.8173 5.43994 16.0152 6.07322 15.7777 6.62735Z" fill="#249A73"/>
<path d="M6.6742 11.08C6.39714 11.08 6.12007 10.9613 5.92217 10.7436L3.44841 7.91358C3.09219 7.49799 3.13177 6.88449 3.52757 6.50848C3.94316 6.15226 4.55665 6.19184 4.93267 6.58764L6.79294 8.70518L11.127 5.22212C11.5426 4.88569 12.1758 4.94506 12.5123 5.38044C12.8487 5.81583 12.7893 6.42932 12.354 6.76575L7.28769 10.8623C7.10958 11.0008 6.89189 11.08 6.6742 11.08Z" fill="white"/>
</svg>
